# xmcd
#
# Track frame offsets:
#	150
#	16685
#	29485
#	40045
#	56332
#	85087
#	95380
#	109930
#	127653
#	139131
#	160846
#	173222
#	187193
#	200897
#	221307
#	241981
#	255222
#	275523
#	292074
#	313088
#	346775
#
# Disc length: 4794 seconds
#
# Revision: 0
# Processed by: cddbd v1.5.1PL0 Copyright (c) Steve Scherf et al.
# Submitted via: EasyCDDAExtractor 8.2.3.1
#
DISCID=2512b815
DTITLE=Richie Havens - High Flyin' Bird - The Verve Forecast Years CD1
DYEAR=1900
DGENRE=
TTITLE0=High Flyin' Bird
TTITLE1=I Can't Make It Anymore
TTITLE2=Morning, Morning
TTITLE3=Adam
TTITLE4=Follow
TTITLE5=Three Day Eternity
TTITLE6=Sandy
TTITLE7=Handsome Johnny
TTITLE8=San Francisco Bay Blues
TTITLE9=Just Like A Woman
TTITLE10=Eleanor Rigby
TTITLE11=I've Gotta Go
TTITLE12=No Opportunity Necessary, No Experiences Needed
TTITLE13=Inside of Him
TTITLE14=The Klan
TTITLE15=Sugarplums
TTITLE16=Don't Listen to Me
TTITLE17=From the Prison
TTITLE18=Maggie's Farm
TTITLE19=Somethin' Else Again
TTITLE20=New City
EXTD=
EXTT0=
EXTT1=
EXTT2=
EXTT3=
EXTT4=
EXTT5=
EXTT6=
EXTT7=
EXTT8=
EXTT9=
EXTT10=
EXTT11=
EXTT12=
EXTT13=
EXTT14=
EXTT15=
EXTT16=
EXTT17=
EXTT18=
EXTT19=
EXTT20=
PLAYORDER=
